<svg width="76" height="20" fill="none" xmlns="http://www.w3.org/2000/svg"><path fill-rule="evenodd" clip-rule="evenodd" d="M74.998 16.247v3.36h-5.882c-.635 0-1.153-.205-1.555-.615-.402-.411-.602-.934-.602-1.569V9.076H62.84V5.714h4.118V0h3.53v5.714h5.013v3.362h-5.014v6.33c0 .56.252.84.757.84h3.753ZM6.387 20c1.83 0 3.249-.41 4.257-1.233 1.009-.821 1.513-1.923 1.513-3.305v-.168c0-1.251-.448-2.227-1.345-2.927-.896-.7-2.054-1.125-3.473-1.275-1.233-.13-2.082-.294-2.55-.49-.466-.196-.7-.518-.7-.966 0-.318.15-.584.449-.798.299-.215.747-.323 1.344-.323.654 0 1.186.145 1.597.435.41.289.7.686.868 1.19l3.194-1.288a6.186 6.186 0 0 0-.645-1.219 4.864 4.864 0 0 0-1.092-1.148c-.448-.346-.994-.626-1.639-.84-.644-.215-1.405-.323-2.283-.323-.672 0-1.326.093-1.96.28a5.233 5.233 0 0 0-1.681.827 4.337 4.337 0 0 0-1.177 1.33C.766 8.282.616 8.89.616 9.58v.169c0 1.326.462 2.33 1.387 3.011.924.682 2.17 1.088 3.74 1.219.578.056 1.059.13 1.442.224.383.093.686.21.91.35.224.14.378.29.462.448.084.159.126.332.126.518 0 .318-.163.612-.49.883-.327.27-.929.406-1.806.406-.99 0-1.723-.224-2.2-.672a3.185 3.185 0 0 1-.938-1.57L0 15.63c.093.486.275.985.546 1.499.271.513.658.98 1.163 1.4.504.42 1.139.77 1.904 1.05.766.28 1.69.421 2.774.421Zm15.724 0c1.98 0 3.562-.504 4.748-1.513 1.186-1.008 1.937-2.334 2.255-3.977l-3.474-.868c-.168.915-.537 1.643-1.106 2.184-.57.542-1.396.813-2.48.813-.503 0-.98-.08-1.428-.238a3.295 3.295 0 0 1-1.176-.715 3.38 3.38 0 0 1-.799-1.19c-.196-.476-.294-1.023-.294-1.639v-.168c0-.616.098-1.172.294-1.667.197-.495.463-.915.799-1.26a3.505 3.505 0 0 1 1.176-.798c.448-.187.925-.28 1.429-.28 1.083 0 1.923.298 2.52.896a3.633 3.633 0 0 1 1.065 2.129l3.474-.897c-.318-1.643-1.079-2.969-2.283-3.977-1.205-1.009-2.778-1.513-4.72-1.513a7.956 7.956 0 0 0-2.843.504 6.81 6.81 0 0 0-2.325 1.457 6.708 6.708 0 0 0-1.555 2.297c-.373.896-.56 1.905-.56 3.025v.336c0 1.12.187 2.12.56 2.997a6.285 6.285 0 0 0 1.54 2.213 6.754 6.754 0 0 0 2.312 1.373 8.458 8.458 0 0 0 2.87.476Zm18.455-.476a7.89 7.89 0 0 1-2.73.476 7.89 7.89 0 0 1-2.732-.476 7 7 0 0 1-2.31-1.387 6.53 6.53 0 0 1-1.597-2.24c-.393-.888-.589-1.91-.589-3.068v-.336c0-1.14.196-2.152.588-3.04A6.677 6.677 0 0 1 32.794 7.2a6.883 6.883 0 0 1 2.311-1.4 7.892 7.892 0 0 1 2.731-.477 7.89 7.89 0 0 1 2.731.476 6.882 6.882 0 0 1 2.311 1.4 6.68 6.68 0 0 1 1.597 2.256c.392.887.588 1.9.588 3.039v.336c0 1.158-.196 2.18-.588 3.067a6.533 6.533 0 0 1-1.597 2.241 7 7 0 0 1-2.31 1.387Zm-2.73-2.885c-.505 0-.981-.084-1.43-.252a3.467 3.467 0 0 1-1.176-.729 3.44 3.44 0 0 1-.798-1.162c-.196-.458-.294-.976-.294-1.555v-.56c0-.579.098-1.097.294-1.555.196-.457.462-.845.798-1.162.336-.318.728-.56 1.177-.728a4.034 4.034 0 0 1 1.428-.253c.504 0 .98.085 1.429.253.448.168.84.41 1.176.728.336.317.602.705.799 1.162.196.458.294.976.294 1.555v.56c0 .58-.098 1.097-.294 1.555a3.44 3.44 0 0 1-.799 1.162c-.336.318-.728.56-1.176.729a4.037 4.037 0 0 1-1.429.252Zm18.623 2.885a7.89 7.89 0 0 1-2.732.476 7.89 7.89 0 0 1-2.73-.476 6.998 6.998 0 0 1-2.312-1.387 6.532 6.532 0 0 1-1.596-2.24c-.392-.888-.588-1.91-.588-3.068v-.336c0-1.14.196-2.152.588-3.04A6.679 6.679 0 0 1 48.685 7.2a6.88 6.88 0 0 1 2.311-1.4 7.89 7.89 0 0 1 2.731-.477c.953 0 1.863.159 2.732.476a6.883 6.883 0 0 1 2.31 1.4 6.677 6.677 0 0 1 1.597 2.256c.392.887.588 1.9.588 3.039v.336c0 1.158-.196 2.18-.588 3.067a6.53 6.53 0 0 1-1.596 2.241 7 7 0 0 1-2.311 1.387Zm-2.732-2.885c-.504 0-.98-.084-1.428-.252a3.468 3.468 0 0 1-1.177-.729 3.44 3.44 0 0 1-.798-1.162c-.196-.458-.294-.976-.294-1.555v-.56c0-.579.098-1.097.294-1.555a3.44 3.44 0 0 1 .798-1.162c.337-.318.729-.56 1.177-.728a4.035 4.035 0 0 1 1.428-.253c.505 0 .98.085 1.43.253.447.168.84.41 1.176.728.336.317.602.705.798 1.162.196.458.294.976.294 1.555v.56c0 .58-.098 1.097-.294 1.555a3.44 3.44 0 0 1-.798 1.162c-.337.318-.729.56-1.177.729a4.037 4.037 0 0 1-1.428.252Z" fill="#495567"/></svg>